<?xml version="1.0" standalone="no"?>
<!DOCTYPE svg PUBLIC "-//W3C//DTD SVG 20010904//EN"
 "http://www.w3.org/TR/2001/REC-SVG-20010904/DTD/svg10.dtd">
<svg version="1.0" xmlns="http://www.w3.org/2000/svg"
 width="256.000000pt" height="256.000000pt" viewBox="0 0 256.000000 256.000000"
 preserveAspectRatio="xMidYMid meet">
<metadata>
Created by potrace 1.15, written by Peter Selinger 2001-2017
</metadata>
<g transform="translate(0.000000,256.000000) scale(0.100000,-0.100000)"
fill="#000000" stroke="none">
<path d="M1179 2219 c-212 -22 -399 -110 -552 -258 -89 -85 -147 -166 -201
-282 -76 -164 -103 -320 -85 -491 13 -124 32 -194 89 -313 45 -96 132 -225
151 -225 5 0 -9 24 -32 53 -52 67 -125 217 -140 285 -6 29 -9 56 -6 58 8 9 57
-8 57 -19 0 -6 7 -30 16 -54 16 -41 18 -42 59 -41 55 3 90 -21 103 -69 l10
-38 1 38 c1 57 -41 97 -102 97 -43 0 -46 2 -57 34 -10 31 -9 35 25 69 37 37
45 74 24 120 -12 26 -57 57 -83 57 -12 0 -16 10 -16 45 0 41 2 45 24 45 42 0
77 39 83 92 5 40 2 50 -19 71 -13 13 -30 26 -38 29 -12 4 -12 11 -2 44 11 38
12 39 57 39 40 0 51 5 76 33 35 39 38 87 8 125 l-20 26 23 31 c17 24 27 29 43
24 11 -3 39 -9 62 -11 35 -4 46 -1 67 20 31 32 42 72 29 108 -10 26 -8 30 24
49 l36 21 26 -25 c36 -34 72 -41 114 -21 36 17 57 50 57 90 0 28 3 30 50 39
33 6 37 4 47 -23 25 -68 117 -86 165 -32 16 17 28 39 28 47 0 12 6 15 23 10
12 -3 32 -6 45 -6 18 0 22 -5 22 -34 0 -22 9 -45 26 -65 22 -26 33 -31 70 -31
35 0 51 6 71 26 22 23 29 24 52 15 24 -11 25 -10 7 4 -25 19 -35 19 -57 -1
-17 -15 -18 -14 -24 12 -4 16 -11 44 -15 63 l-9 33 36 -7 c75 -14 240 -113
307 -184 17 -17 34 -31 40 -31 21 0 -92 104 -171 157 -181 120 -408 176 -624
152z"/>
<path d="M1146 1814 c-139 -34 -292 -156 -355 -285 -48 -98 -68 -212 -53 -309
6 -43 18 -93 27 -111 9 -22 14 -26 11 -11 -4 21 -2 22 32 15 21 -4 91 -8 157
-7 107 0 127 3 184 27 35 15 67 24 70 21 12 -12 13 -204 1 -218 -6 -8 -33 -17
-61 -21 -43 -6 -49 -10 -49 -31 l0 -24 180 0 180 0 0 24 c0 22 -6 26 -46 32
-73 11 -78 25 -70 211 7 149 8 158 33 187 30 35 93 162 93 187 0 26 12 30 33
12 20 -18 20 -18 3 9 -20 31 -63 48 -122 48 l-44 0 -1 -110 c-1 -60 -3 -123
-4 -140 -1 -16 -3 -82 -4 -145 -1 -81 -4 -114 -13 -113 -12 3 -21 -88 -12
-129 5 -24 53 -43 112 -43 17 0 32 -4 32 -9 0 -12 -328 -12 -336 0 -3 5 16 9
43 9 26 0 59 6 73 13 29 14 38 51 18 74 -7 9 -8 14 -2 10 6 -3 11 0 11 8 0 8
-4 12 -9 9 -4 -3 -8 7 -9 23 -1 15 -2 46 -4 68 -2 22 -4 132 -5 244 -1 112 -4
210 -7 217 -6 17 -95 19 -125 3 -32 -17 -65 -59 -85 -106 -11 -27 -24 -43 -35
-43 -16 0 -18 11 -18 97 l0 96 20 -18 c19 -17 26 -18 66 -7 57 16 189 15 214
0 15 -9 24 -9 43 1 24 13 131 11 234 -5 35 -5 43 -3 52 15 11 20 9 21 -27 21
-21 0 -45 6 -54 13 -18 14 -33 127 -17 127 20 0 96 -44 141 -82 94 -78 158
-210 178 -365 l9 -68 -4 81 c-15 288 -259 516 -550 513 -38 0 -96 -7 -129 -15z"/>
</g>
</svg>
